<?xml version="1.0" encoding="utf-8"?>
<!-- Generator: Adobe Illustrator 24.0.2, SVG Export Plug-In . SVG Version: 6.00 Build 0)  -->
<svg version="1.1" id="Layer_1" xmlns="http://www.w3.org/2000/svg" xmlns:xlink="http://www.w3.org/1999/xlink" x="0px" y="0px"
	 viewBox="0 0 70 70" style="enable-background:new 0 0 70 70;" xml:space="preserve">
<style type="text/css">
	.st0{fill:#1F2032;}
</style>
<g>
	<path class="st0" d="M19.8,59.1c0-0.7-0.1-1.4-0.2-2.1c-0.9-4.5-4.8-7.7-9.2-7.7c-4.4,0-8.3,3.3-9.2,7.7C1.1,57.7,1,58.4,1,59.1
		c0,0.7,0.1,1.4,0.2,2.1C2.1,65.7,6,69,10.4,69c2.4,0,4.7-1,6.5-2.7l-2.5-2.6c-1.1,1-2.5,1.6-3.9,1.6c-2.4,0-4.5-1.5-5.4-3.8L4.8,61
		h14.8C19.8,60.4,19.8,59.7,19.8,59.1z M4.8,57.3L5,56.9c0.9-2.3,3-3.8,5.4-3.8s4.5,1.5,5.4,3.8l0.2,0.4H4.8L4.8,57.3z"/>
	<path class="st0" d="M41.3,59.1c0,0.7-0.1,1.4-0.2,2.1c-0.9,4.5-4.8,7.7-9.2,7.7c-5.2,0-9.4-4.4-9.4-9.8c0-5.4,4.2-9.8,9.4-9.8
		c2.4,0,4.7,1,6.5,2.7l-2.5,2.6c-1.1-1-2.5-1.6-3.9-1.6c-3.2,0-5.9,2.7-5.9,6.1c0,3.4,2.6,6.1,5.9,6.1c2.4,0,4.5-1.5,5.4-3.8
		l0.2-0.4h-5.3v-3.7h9C41.2,57.9,41.3,58.5,41.3,59.1z"/>
	<path class="st0" d="M59.5,49.3c-5.2,0-9.4,4.4-9.4,9.8c0,5.4,4.2,9.8,9.4,9.8c5.2,0,9.4-4.4,9.4-9.8
		C68.9,53.7,64.7,49.3,59.5,49.3z M59.5,65.2c-3.2,0-5.9-2.7-5.9-6.1c0-3.4,2.6-6.1,5.9-6.1c3.2,0,5.9,2.7,5.9,6.1
		C65.4,62.5,62.7,65.2,59.5,65.2z"/>
	<rect x="43.9" y="49.6" class="st0" width="3.6" height="19"/>
</g>
<path class="st0" d="M56.7,22.6C56.2,10.8,46.8,1.3,35.4,1c-6.1-0.1-12,2.4-16.2,7c-4.3,4.6-6.4,10.7-6,17.2
	c0.7,11.3,9.4,20.4,20.3,21.1c0.5,0,0.9,0,1.4,0c4,0,7.8-1.1,11.2-3.2c1.5-0.9,2.5-2.5,2.7-4.3c0.2-1.8-0.4-3.6-1.6-4.9
	c-1.8-1.9-4.7-2.3-6.9-0.9c-1.6,1-3.4,1.5-5.3,1.5c0,0,0,0,0,0c-2.9,0-5.5-1.2-7.5-3.4c-2-2.2-3-5-2.8-8c0.3-5.4,4.6-9.9,9.8-10.2
	c2.9-0.2,5.6,0.9,7.7,2.9c1.7,1.6,2.7,3.7,3.1,6l-5.5,0c-0.7-2-2.5-3.4-4.7-3.4c-2.8,0-5,2.3-5,5.2s2.2,5.2,5,5.2
	c2.1,0,4-1.4,4.7-3.4l7.5,0c1,0,1.8-0.8,1.8-1.8c0-3.3-1-6.3-2.9-8.8l3.1-3.2c2.4,3.1,4,7,4.1,11.2c0.1,3.1-0.4,6.1-1.7,8.8
	c-0.4,0.9,0,2,0.9,2.4c0.9,0.4,1.9,0,2.3-0.9C56.1,29.9,56.8,26.3,56.7,22.6z M34.2,9.2c-7,0.4-12.7,6.4-13.1,13.7
	c-0.2,4,1.2,7.8,3.8,10.7c2.6,2.9,6.2,4.5,10.1,4.5c0,0,0,0,0,0c2.5,0,5-0.7,7.1-2.1c0.9-0.5,1.9-0.4,2.6,0.3
	c0.5,0.5,0.7,1.2,0.6,1.9s-0.5,1.3-1,1.6c-3.2,2-6.8,2.9-10.5,2.7c-9.1-0.6-16.4-8.2-17-17.7c-0.3-5.4,1.4-10.5,5-14.4
	c3.5-3.8,8.5-6,13.5-5.9c4.2,0.1,8.1,1.7,11.2,4.3l-3.1,3.2C40.8,10.1,37.6,9,34.2,9.2z"/>
</svg>
